<?xml version="1.0" encoding="UTF-8"?>
<svg id="Layer_1" data-name="Layer 1" xmlns="http://www.w3.org/2000/svg" xmlns:xlink="http://www.w3.org/1999/xlink" version="1.1" viewBox="0 0 64 64">
  <defs>
    <style>
      .cls-1 {
        fill: url(#linear-gradient);
      }

      .cls-1, .cls-2, .cls-3 {
        stroke-width: 0px;
      }

      .cls-2 {
        fill: url(#linear-gradient-2);
      }

      .cls-3 {
        fill: url(#linear-gradient-3);
      }
    </style>
    <linearGradient id="linear-gradient" x1="32" y1="43.1" x2="32" y2="26.5" gradientTransform="translate(0 66) scale(1 -1)" gradientUnits="userSpaceOnUse">
      <stop offset="0" stop-color="#8ab4ff"/>
      <stop offset="1" stop-color="#e492ff"/>
    </linearGradient>
    <linearGradient id="linear-gradient-2" x1="32" y1="61.7" x2="32" y2="9.5" gradientTransform="translate(0 66) scale(1 -1)" gradientUnits="userSpaceOnUse">
      <stop offset="0" stop-color="#1a6dff"/>
      <stop offset="1" stop-color="#c822ff"/>
    </linearGradient>
    <linearGradient id="linear-gradient-3" x1="32" y1="61.7" x2="32" y2="9.5" gradientTransform="translate(0 66) scale(1 -1)" gradientUnits="userSpaceOnUse">
      <stop offset="0" stop-color="#1a6dff"/>
      <stop offset="1" stop-color="#c822ff"/>
    </linearGradient>
  </defs>
  <polygon class="cls-1" points="32 24 16 31 32 40 48 31 32 24"/>
  <path class="cls-2" d="M16,32.2l15,8.6c.3.2.6.3,1,.3s.7,0,1-.3l15-8.6c.5-.3.8-.7.9-1.3.1-.5,0-1.1-.3-1.6l-15-23.6c-.4-.6-1-.9-1.7-.9s-1.3.3-1.7.9l-15,23.6c-.3.5-.4,1-.3,1.6.1.5.5,1,.9,1.3ZM17.6,30.8l13.4-5.4v13l-13.4-7.7ZM33,25.5l13.4,5.4-13.4,7.7v-13ZM45.7,28.4l-12.7-5.1v-14.9l12.7,20ZM31,8.4v14.9l-12.7,5.1,12.7-20Z"/>
  <path class="cls-3" d="M50.2,35c-.3-.4-.8-.4-1.3-.2l-16.9,10.1-16.9-10.1c-.4-.2-.9-.2-1.3.2-.3.4-.3.9,0,1.3l16.6,22.2c.4.5,1,.8,1.6.8s1.2-.3,1.6-.8l16.6-22.2c.3-.4.3-.9,0-1.3ZM18.4,39.1l12.6,7.5v9.3l-12.6-16.8ZM33,56v-9.3l12.6-7.5-12.6,16.8Z"/>
</svg>