<?xml version="1.0" encoding="UTF-8"?>
<svg id="Layer_1" data-name="Layer 1" xmlns="http://www.w3.org/2000/svg" xmlns:xlink="http://www.w3.org/1999/xlink" version="1.1" viewBox="0 0 64 64">
  <defs>
    <style>
      .cls-1 {
        fill: url(#linear-gradient);
      }

      .cls-1, .cls-2, .cls-3, .cls-4, .cls-5, .cls-6, .cls-7, .cls-8 {
        stroke-width: 0px;
      }

      .cls-2 {
        fill: url(#linear-gradient-4);
      }

      .cls-3 {
        fill: url(#linear-gradient-2);
      }

      .cls-4 {
        fill: url(#linear-gradient-3);
      }

      .cls-5 {
        fill: url(#linear-gradient-8);
      }

      .cls-6 {
        fill: url(#linear-gradient-7);
      }

      .cls-7 {
        fill: url(#linear-gradient-5);
      }

      .cls-8 {
        fill: url(#linear-gradient-6);
      }
    </style>
    <linearGradient id="linear-gradient" x1="10" y1="20.8" x2="10" y2="17.3" gradientTransform="translate(0 66) scale(1 -1)" gradientUnits="userSpaceOnUse">
      <stop offset="0" stop-color="#6dc7ff"/>
      <stop offset="1" stop-color="#e6abff"/>
    </linearGradient>
    <linearGradient id="linear-gradient-2" x1="32" y1="53.6" x2="32" y2="11.8" gradientTransform="translate(0 66) scale(1 -1)" gradientUnits="userSpaceOnUse">
      <stop offset="0" stop-color="#1a6dff"/>
      <stop offset="1" stop-color="#c822ff"/>
    </linearGradient>
    <linearGradient id="linear-gradient-3" x1="32" y1="53.6" x2="32" y2="11.8" gradientTransform="translate(0 66) scale(1 -1)" gradientUnits="userSpaceOnUse">
      <stop offset="0" stop-color="#1a6dff"/>
      <stop offset="1" stop-color="#c822ff"/>
    </linearGradient>
    <linearGradient id="linear-gradient-4" x1="32" y1="53.6" x2="32" y2="11.8" gradientTransform="translate(0 66) scale(1 -1)" gradientUnits="userSpaceOnUse">
      <stop offset="0" stop-color="#1a6dff"/>
      <stop offset="1" stop-color="#c822ff"/>
    </linearGradient>
    <linearGradient id="linear-gradient-5" x1="32" y1="53.6" x2="32" y2="11.8" gradientTransform="translate(0 66) scale(1 -1)" gradientUnits="userSpaceOnUse">
      <stop offset="0" stop-color="#1a6dff"/>
      <stop offset="1" stop-color="#c822ff"/>
    </linearGradient>
    <linearGradient id="linear-gradient-6" x1="45" y1="53.6" x2="45" y2="11.8" gradientTransform="translate(0 66) scale(1 -1)" gradientUnits="userSpaceOnUse">
      <stop offset="0" stop-color="#1a6dff"/>
      <stop offset="1" stop-color="#c822ff"/>
    </linearGradient>
    <linearGradient id="linear-gradient-7" x1="43" y1="53.6" x2="43" y2="11.8" gradientTransform="translate(0 66) scale(1 -1)" gradientUnits="userSpaceOnUse">
      <stop offset="0" stop-color="#1a6dff"/>
      <stop offset="1" stop-color="#c822ff"/>
    </linearGradient>
    <linearGradient id="linear-gradient-8" x1="38" y1="53.6" x2="38" y2="11.8" gradientTransform="translate(0 66) scale(1 -1)" gradientUnits="userSpaceOnUse">
      <stop offset="0" stop-color="#1a6dff"/>
      <stop offset="1" stop-color="#c822ff"/>
    </linearGradient>
  </defs>
  <path class="cls-1" d="M12,49h-4v-3.1c0-.5.4-.9.9-.9h2.2c.5,0,.9.4.9.9v3.1Z"/>
  <rect class="cls-3" x="31" y="33" width="2" height="4"/>
  <rect class="cls-4" x="31" y="39" width="2" height="4"/>
  <rect class="cls-2" x="31" y="45" width="2" height="4"/>
  <path class="cls-7" d="M56,23.7c-.8-.5-1.7-.7-2.6-.7h-23.5c-.6,0-.9-.5-.9-.6,0-.1-.2-.6.2-1.1l2.4-2.4c1.8-1.8,1.9-4.6.3-6.4-1.1-1.2-2.7-1.8-4.4-1.4-.9.2-1.7.7-2.3,1.3l-10.5,10.5h-5.5c-1.7,0-3,1.4-3,3v22c0,1.7,1.3,3,3,3h3c.3,0,.6,0,.9-.2.9,1.3,2.4,2.2,4.1,2.2h18.3c2.5,0,4.6-1.9,4.7-4.3,0-1.2-.4-2.4-1.2-3.3-.1-.1-.3-.3-.5-.4,1-.8,1.7-2.1,1.7-3.5s-.7-2.7-1.7-3.5c1-.8,1.7-2.1,1.7-3.5s-.3-1.5-.8-2.5h14.1c2.5,0,4.6-1.9,4.7-4.3,0-1.6-.6-3.1-2-4ZM9,49c-.6,0-1-.5-1-1v-22c0-.5.4-1,1-1h3v23c0,.3,0,1,.1,1h-3.1ZM53.3,30h-18.3v2h.5c1,0,2.5,1.1,2.5,2.5s-1.5,2.5-2.5,2.5h-.5v2h.5c1,0,2.5,1.1,2.5,2.5s-1.5,2.5-2.5,2.5h-.5v2h.5c1,0,1.3.3,1.8.8.5.5.7,1.2.7,1.9,0,1.3-1.3,2.4-2.7,2.4h-18.1c-1.2,0-2.3-.6-2.8-1.6-.2-.4-.3-.9-.3-1.4v-23h1.4l11.2-11.2c.5-.5,1.2-.8,1.9-.8.7,0,1.4.3,1.8.9.9,1,.8,2.6-.2,3.7l-2.3,2.3c-.7.7-1.1,1.8-.9,2.8.3,1.5,1.5,2.4,2.9,2.4h23.5c.6,0,1.1.2,1.6.5.7.5,1,1.3,1,2.1,0,1.3-1.3,2.4-2.7,2.4Z"/>
  <rect class="cls-8" x="42" y="18" width="6" height="2"/>
  <polygon class="cls-6" points="45.8 12.6 44.4 11.2 40.2 15.4 41.6 16.8 45.8 12.6"/>
  <rect class="cls-5" x="37" y="9" width="2" height="6"/>
</svg>