<?xml version="1.0" encoding="UTF-8"?>
<svg id="Layer_1" data-name="Layer 1" xmlns="http://www.w3.org/2000/svg" xmlns:xlink="http://www.w3.org/1999/xlink" version="1.1" viewBox="0 0 64 64">
  <defs>
    <style>
      .cls-1 {
        fill: url(#linear-gradient);
      }

      .cls-1, .cls-2 {
        stroke-width: 0px;
      }

      .cls-2 {
        fill: url(#linear-gradient-2);
      }
    </style>
    <linearGradient id="linear-gradient" x1="32" y1="40.3" x2="32" y2="12.6" gradientTransform="translate(0 66) scale(1 -1)" gradientUnits="userSpaceOnUse">
      <stop offset="0" stop-color="#1a6dff"/>
      <stop offset="1" stop-color="#c822ff"/>
    </linearGradient>
    <linearGradient id="linear-gradient-2" x1="31.1" y1="55.5" x2="31.1" y2="36.1" gradientTransform="translate(0 66) scale(1 -1)" gradientUnits="userSpaceOnUse">
      <stop offset="0" stop-color="#8ab4ff"/>
      <stop offset="1" stop-color="#e492ff"/>
    </linearGradient>
  </defs>
  <path class="cls-1" d="M55,51v-21h-2v21h-4v-25h-2v25h-4v-18h-2v18h-6v-14h-2v14h-4v-9h-2v9h-4v-21h-2v21h-4v-5h-2v5h-4v-9h-2v9h-3v2h52v-2h-3Z"/>
  <path class="cls-2" d="M50.8,11.1l-5.2,1.4c-.6.2-.8,1-.4,1.4l1.7,1.7-10.8,10.8c-1.2,1.2-3.1,1.2-4.2,0l-6.3-6.3c-1.9-1.9-5.1-1.9-7.1,0l-9.2,9.2,1.4,1.4,9.2-9.2c1.2-1.2,3.1-1.2,4.2,0l6.3,6.3c1.9,1.9,5.1,1.9,7.1,0l10.8-10.8,1.7,1.7c.5.5,1.3.3,1.4-.4l1.4-5.2c.4-1.3-.8-2.5-2.1-2.1Z"/>
</svg>