<?xml version="1.0" encoding="UTF-8"?>
<svg id="Layer_1" data-name="Layer 1" xmlns="http://www.w3.org/2000/svg" xmlns:xlink="http://www.w3.org/1999/xlink" version="1.1" viewBox="0 0 64 64">
  <defs>
    <style>
      .cls-1 {
        fill: url(#linear-gradient);
      }

      .cls-1, .cls-2 {
        stroke-width: 0px;
      }

      .cls-2 {
        fill: url(#linear-gradient-2);
      }
    </style>
    <linearGradient id="linear-gradient" x1="32" y1="60.4" x2="32" y2="6.8" gradientTransform="translate(0 66) scale(1 -1)" gradientUnits="userSpaceOnUse">
      <stop offset="0" stop-color="#1a6dff"/>
      <stop offset="1" stop-color="#c822ff"/>
    </linearGradient>
    <linearGradient id="linear-gradient-2" x1="32" y1="47.2" x2="32" y2="21.2" gradientTransform="translate(0 66) scale(1 -1)" gradientUnits="userSpaceOnUse">
      <stop offset="0" stop-color="#6dc7ff"/>
      <stop offset="1" stop-color="#e6abff"/>
    </linearGradient>
  </defs>
  <path class="cls-1" d="M24,58h-2c-.7,0-1.3-.3-1.7-.9-.4-.6-.4-1.3-.1-1.9l6.8-15.1h-11c-1.2,0-2.2-.7-2.7-1.8-.5-1.1-.3-2.3.5-3.2L38.5,6.7c.4-.4.9-.7,1.5-.7h2c.7,0,1.3.3,1.7.9.4.6.4,1.3.1,1.9l-7.1,15.1h11.3c1.2,0,2.2.7,2.7,1.8.5,1.1.3,2.3-.5,3.2l-24.7,28.3c-.4.4-.9.7-1.5.7ZM40,8l-24.7,28.3c-.4.5-.2.9-.2,1.1,0,.1.3.6.9.6h14.1l-8,18h2s24.7-28.3,24.7-28.3c.4-.5.2-.9.2-1.1,0-.1-.3-.6-.9-.6h-14.5l8.4-18h-2Z"/>
  <path class="cls-2" d="M31.2,43.5l4-8c.3-.7-.2-1.4-.9-1.4h-11.2c-.8,0-1.3-1-.8-1.6l10-12c.4-.5,1.1,0,.8.6l-4.3,7.5c-.4.7,0,1.5.9,1.5h11.2c.8,0,1.3,1,.8,1.6l-9.6,12.4c-.4.5-1.1,0-.8-.5Z"/>
</svg>