<?xml version="1.0" encoding="UTF-8"?>
<svg id="Layer_1" data-name="Layer 1" xmlns="http://www.w3.org/2000/svg" xmlns:xlink="http://www.w3.org/1999/xlink" version="1.1" viewBox="0 0 64 64">
  <defs>
    <style>
      .cls-1 {
        fill: url(#linear-gradient);
      }

      .cls-1, .cls-2, .cls-3 {
        stroke-width: 0px;
      }

      .cls-2 {
        fill: url(#linear-gradient-2);
      }

      .cls-3 {
        fill: url(#linear-gradient-3);
      }
    </style>
    <linearGradient id="linear-gradient" x1="32" y1="60.5" x2="32" y2="7.6" gradientTransform="translate(0 66) scale(1 -1)" gradientUnits="userSpaceOnUse">
      <stop offset="0" stop-color="#1a6dff"/>
      <stop offset="1" stop-color="#c822ff"/>
    </linearGradient>
    <linearGradient id="linear-gradient-2" x1="32" y1="60.5" x2="32" y2="7.6" gradientTransform="translate(0 66) scale(1 -1)" gradientUnits="userSpaceOnUse">
      <stop offset="0" stop-color="#1a6dff"/>
      <stop offset="1" stop-color="#c822ff"/>
    </linearGradient>
    <linearGradient id="linear-gradient-3" x1="32" y1="35.2" x2="32" y2="16.7" gradientTransform="translate(0 66) scale(1 -1)" gradientUnits="userSpaceOnUse">
      <stop offset="0" stop-color="#6dc7ff"/>
      <stop offset="1" stop-color="#e6abff"/>
    </linearGradient>
  </defs>
  <path class="cls-1" d="M52.4,42.9l-6.9-16.6c-.7-1.6-1.9-2.9-3.5-3.6v-1.7c0-1.3-.8-2.4-2-2.8v-1.2c0-1.6-1.2-2.8-2.7-3l1.4-5.5c.1-.6,0-1.2-.4-1.7-.4-.5-1-.8-1.6-.8h-9.4c-.6,0-1.2.3-1.6.8s-.5,1.1-.4,1.7l1.4,5.5c-1.5.1-2.7,1.4-2.7,3v1.2c-1.2.4-2,1.5-2,2.8v1.7c-1.5.7-2.8,2-3.5,3.6l-6.9,16.6c-1.1,2.6-1.6,5.3-1.6,8.1s3.1,7,7,7h30c3.9,0,7-3.1,7-7s-.5-5.5-1.6-8.1ZM36.7,8l-1.5,6h-6.4l-1.5-6h9.4ZM26,17c0-.6.4-1,1-1h10c.6,0,1,.4,1,1v1h-12v-1ZM24,22v-1c0-.6.4-1,1-1h14c.6,0,1,.4,1,1v1h-16ZM47,56h-30c-2.8,0-5-2.2-5-5s.5-5,1.5-7.3l6.9-16.6c.8-1.9,2.6-3.1,4.6-3.1h14c2,0,3.8,1.2,4.6,3.1l6.9,16.6c1,2.3,1.5,4.8,1.5,7.3s-2.2,5-5,5Z"/>
  <path class="cls-2" d="M22,52h20v2h-20v-2Z"/>
  <path class="cls-3" d="M30,35h7v-2h-4v-2h-2v2h-1c-1.7,0-3,1.3-3,3v2c0,1.7,1.3,3,3,3h4c.6,0,1,.4,1,1v2c0,.6-.4,1-1,1h-7v2h4v2h2v-2h1c1.7,0,3-1.3,3-3v-2c0-1.7-1.3-3-3-3h-4c-.6,0-1-.4-1-1v-2c0-.6.4-1,1-1Z"/>
</svg>