<?xml version="1.0" encoding="UTF-8"?>
<svg id="Layer_1" data-name="Layer 1" xmlns="http://www.w3.org/2000/svg" xmlns:xlink="http://www.w3.org/1999/xlink" version="1.1" viewBox="0 0 64 64">
  <defs>
    <style>
      .cls-1 {
        fill: url(#linear-gradient);
      }

      .cls-1, .cls-2, .cls-3, .cls-4, .cls-5, .cls-6, .cls-7 {
        stroke-width: 0px;
      }

      .cls-2 {
        fill: url(#linear-gradient-4);
      }

      .cls-3 {
        fill: url(#linear-gradient-2);
      }

      .cls-4 {
        fill: url(#linear-gradient-3);
      }

      .cls-5 {
        fill: url(#linear-gradient-7);
      }

      .cls-6 {
        fill: url(#linear-gradient-5);
      }

      .cls-7 {
        fill: url(#linear-gradient-6);
      }
    </style>
    <linearGradient id="linear-gradient" x1="10" y1="451.7" x2="10" y2="460.4" gradientTransform="translate(0 -427)" gradientUnits="userSpaceOnUse">
      <stop offset="0" stop-color="#8ab4ff"/>
      <stop offset="1" stop-color="#e492ff"/>
    </linearGradient>
    <linearGradient id="linear-gradient-2" x1="54" y1="455" x2="54" y2="464.9" gradientTransform="translate(0 -427)" gradientUnits="userSpaceOnUse">
      <stop offset="0" stop-color="#8ab4ff"/>
      <stop offset="1" stop-color="#e492ff"/>
    </linearGradient>
    <linearGradient id="linear-gradient-3" x1="38.1" y1="434.4" x2="38.1" y2="482.8" gradientTransform="translate(0 -427)" gradientUnits="userSpaceOnUse">
      <stop offset="0" stop-color="#1a6dff"/>
      <stop offset="1" stop-color="#c822ff"/>
    </linearGradient>
    <linearGradient id="linear-gradient-4" x1="25.9" y1="434.4" x2="25.9" y2="482.8" gradientTransform="translate(0 -427)" gradientUnits="userSpaceOnUse">
      <stop offset="0" stop-color="#1a6dff"/>
      <stop offset="1" stop-color="#c822ff"/>
    </linearGradient>
    <linearGradient id="linear-gradient-5" x1="32" y1="446" x2="32" y2="469.1" gradientTransform="translate(0 -426)" gradientUnits="userSpaceOnUse">
      <stop offset="0" stop-color="#8ab4ff"/>
      <stop offset="1" stop-color="#e492ff"/>
    </linearGradient>
    <linearGradient id="linear-gradient-6" x1="32" y1="446" x2="32" y2="469.1" gradientTransform="translate(0 -426)" gradientUnits="userSpaceOnUse">
      <stop offset="0" stop-color="#8ab4ff"/>
      <stop offset="1" stop-color="#e492ff"/>
    </linearGradient>
    <linearGradient id="linear-gradient-7" x1="32" y1="446" x2="32" y2="469.1" gradientTransform="translate(0 -426)" gradientUnits="userSpaceOnUse">
      <stop offset="0" stop-color="#8ab4ff"/>
      <stop offset="1" stop-color="#e492ff"/>
    </linearGradient>
  </defs>
  <polygon class="cls-1" points="10 24 4 33 16 33 10 24"/>
  <polygon class="cls-3" points="54 40 48 31 60 31 54 40"/>
  <path class="cls-4" d="M60.7,30.1c-.4-.7-1.1-1.1-1.8-1.1h-3.9c-.6-12.2-10.7-22-23-22s-12.3,2.6-16.7,7.2l1.5,1.4c3.9-4.3,9.4-6.6,15.2-6.6,11.2,0,20.4,8.9,20.9,20h-3.8c-.8,0-1.4.4-1.8,1.1-.4.7-.4,1.6,0,2.3l3.9,6.9c.6,1.1,1.7,1.7,2.8,1.7h0c1.2,0,2.2-.6,2.8-1.7l3.9-6.9c.4-.8.4-1.6,0-2.3ZM59,31.4l-3.9,6.9c-.2.5-.6.7-1.1.7h0c-.5,0-.9-.3-1.1-.7l-3.9-6.9c0-.1,0-.3,0-.3,0-.1,0-.1,0-.1h9.7s0,0,0,.1c.1,0,.1.1.1.3Z"/>
  <path class="cls-2" d="M32,55c-11.2,0-20.4-8.9-20.9-20h3.8c.8,0,1.4-.4,1.8-1.1.4-.7.4-1.6,0-2.3l-3.9-6.9c-.6-1.1-1.6-1.7-2.8-1.7h0c-1.2,0-2.2.6-2.8,1.7l-3.9,6.9c-.4.7-.4,1.6,0,2.3.4.7,1.1,1.1,1.9,1.1h3.8c.5,12.2,10.6,22,23,22s12.3-2.6,16.7-7.2l-1.5-1.4c-3.9,4.3-9.4,6.6-15.2,6.6ZM5.2,33s0,0,0,0c0,0,0-.2,0-.3l3.9-6.9c.1-.4.5-.7,1-.7s.9.3,1.1.7l3.9,6.9c.1,0,0,.3,0,.3,0,0-.1,0-.1,0H5.2Z"/>
  <path class="cls-6" d="M36,41h-11v-2h11c.6,0,1-.4,1-1v-4c0-.6-.4-1-1-1h-8c-1.7,0-3-1.3-3-3v-5c0-1.7,1.3-3,3-3h10v2h-10c-.6,0-1,.4-1,1v5c0,.6.4,1,1,1h8c1.7,0,3,1.3,3,3v4c0,1.7-1.3,3-3,3Z"/>
  <path class="cls-7" d="M31,22.8v-2.8s2,0,2,0v2.8s-2,0-2,0Z"/>
  <path class="cls-5" d="M31,40h2v3h-2v-3Z"/>
</svg>