<?xml version="1.0" encoding="UTF-8"?>
<svg id="Layer_1" data-name="Layer 1" xmlns="http://www.w3.org/2000/svg" xmlns:xlink="http://www.w3.org/1999/xlink" version="1.1" viewBox="0 0 64 64">
  <defs>
    <style>
      .cls-1 {
        fill: url(#linear-gradient);
      }

      .cls-1, .cls-2, .cls-3, .cls-4, .cls-5, .cls-6 {
        stroke-width: 0px;
      }

      .cls-2 {
        fill: url(#linear-gradient-4);
      }

      .cls-3 {
        fill: url(#linear-gradient-2);
      }

      .cls-4 {
        fill: url(#linear-gradient-3);
      }

      .cls-5 {
        fill: url(#linear-gradient-5);
      }

      .cls-6 {
        fill: url(#linear-gradient-6);
      }
    </style>
    <linearGradient id="linear-gradient" x1="28" y1="35" x2="28" y2="33" gradientTransform="translate(0 66) scale(1 -1)" gradientUnits="userSpaceOnUse">
      <stop offset="0" stop-color="#8ab4ff"/>
      <stop offset="1" stop-color="#e492ff"/>
    </linearGradient>
    <linearGradient id="linear-gradient-2" x1="27.5" y1="31" x2="27.5" y2="29" gradientTransform="translate(0 66) scale(1 -1)" gradientUnits="userSpaceOnUse">
      <stop offset="0" stop-color="#8ab4ff"/>
      <stop offset="1" stop-color="#e492ff"/>
    </linearGradient>
    <linearGradient id="linear-gradient-3" x1="25.5" y1="54.4" x2="25.5" y2="45.2" gradientTransform="translate(0 66) scale(1 -1)" gradientUnits="userSpaceOnUse">
      <stop offset="0" stop-color="#8ab4ff"/>
      <stop offset="1" stop-color="#e492ff"/>
    </linearGradient>
    <linearGradient id="linear-gradient-4" x1="32" y1="60" x2="32" y2="9.7" gradientTransform="translate(0 66) scale(1 -1)" gradientUnits="userSpaceOnUse">
      <stop offset="0" stop-color="#1a6dff"/>
      <stop offset="1" stop-color="#c822ff"/>
    </linearGradient>
    <linearGradient id="linear-gradient-5" x1="32" y1="60" x2="32" y2="9.7" gradientTransform="translate(0 66) scale(1 -1)" gradientUnits="userSpaceOnUse">
      <stop offset="0" stop-color="#1a6dff"/>
      <stop offset="1" stop-color="#c822ff"/>
    </linearGradient>
    <linearGradient id="linear-gradient-6" x1="32" y1="60" x2="32" y2="9.7" gradientTransform="translate(0 66) scale(1 -1)" gradientUnits="userSpaceOnUse">
      <stop offset="0" stop-color="#1a6dff"/>
      <stop offset="1" stop-color="#c822ff"/>
    </linearGradient>
  </defs>
  <rect class="cls-1" x="24" y="31" width="8" height="2"/>
  <rect class="cls-3" x="23" y="35" width="9" height="2"/>
  <path class="cls-4" d="M30,20h-8.9c-.6,0-1-.5-1-1v-5.9c0-.6.5-1,1-1h8.9c.6,0,1,.5,1,1v5.9c0,.6-.5,1-1,1Z"/>
  <path class="cls-2" d="M33,45.9c5-.5,9-4.8,9-9.9s-1.1-5.2-2.9-7h4.9v-2h-7.7c-1.3-.6-2.8-1-4.3-1s-3,.4-4.3,1h-7.7v2h4.9c-.6.6-1.1,1.3-1.5,2h-3.4v2h2.5c-.2.6-.3,1.3-.4,2h-2.1v2h2.1c.5,4.7,4.2,8.5,8.9,8.9v2.1h-3v7c0,1.7,1.3,3,3,3h2c1.7,0,3-1.3,3-3v-7h-3v-2.1ZM24,36c0-4.4,3.6-8,8-8s8,3.6,8,8-3.6,8-8,8-8-3.6-8-8ZM34,55c0,.6-.4,1-1,1h-2c-.6,0-1-.4-1-1v-1h4v1ZM34,50v2h-4v-2h4Z"/>
  <path class="cls-5" d="M49.5,15.1l-7.7-7.7c-.9-.9-2.2-1.5-3.5-1.5h-20.3c-2.8,0-5,2.2-5,5v38c0,2.8,2.2,5,5,5h8v-2h-8c-1.7,0-3-1.3-3-3h0c.8.6,1.9,1,3,1h8v-2h-8c-1.7,0-3-1.3-3-3V11c0-1.7,1.3-3,3-3h20.3c.2,0,.4,0,.7,0v4.9c0,2.8,2.2,5,5,5h4.9c0,.2,0,.4,0,.7v26.3c0,1.7-1.3,3-3,3h-8v2h8c1.1,0,2.2-.4,3-1h0c0,1.7-1.3,3-3,3h-8v2h8c2.8,0,5-2.2,5-5v-30.3c0-1.3-.5-2.6-1.5-3.5ZM44,16c-1.7,0-3-1.3-3-3v-3.6l6.6,6.6h-3.6Z"/>
  <rect class="cls-6" x="20" y="23" width="24" height="2"/>
</svg>